HIERARCHY
ROOT hip
{
  OFFSET 0 0 0
  CHANNELS 6 Xposition Yposition Zposition Zrotation Yrotation Xrotation
  JOINT abdomen
  {
    OFFSET 0 20.6881 -0.73152
    CHANNELS 3 Zrotation Xrotation Yrotation
    JOINT chest
    {
      OFFSET 0 11.7043 -0.48768
      CHANNELS 3 Zrotation Xrotation Yrotation
      JOINT neck
      {
        OFFSET 0 22.1894 -2.19456
        CHANNELS 3 Zrotation Xrotation Yrotation
        JOINT head
        {
          OFFSET -0.24384 7.07133 1.2192
          CHANNELS 3 Zrotation Xrotation Yrotation
          JOINT leftEye
          {
            OFFSET 4.14528 8.04674 8.04672
            CHANNELS 3 Zrotation Xrotation Yrotation
            End Site
            {
              OFFSET 1 0 0
            }
          }
          JOINT rightEye
          {
            OFFSET -3.6576 8.04674 8.04672
            CHANNELS 3 Zrotation Xrotation Yrotation
            End Site
            {
              OFFSET 1 0 0
            }
          }
        }
      }
      JOINT rCollar
      {
        OFFSET -2.68224 19.2634 -4.8768
        CHANNELS 3 Zrotation Xrotation Yrotation
        JOINT rShldr
        {
          OFFSET -8.77824 -1.95073 1.46304
          CHANNELS 3 Zrotation Xrotation Yrotation
          JOINT rForeArm
          {
            OFFSET -28.1742 -1.7115 0.48768
            CHANNELS 3 Zrotation Xrotation Yrotation
            JOINT rHand
            {
              OFFSET -22.5879 0.773209 7.07136
              CHANNELS 3 Zrotation Xrotation Yrotation
              JOINT rThumb1
              {
                OFFSET -1.2192 -0.487915 3.41376
                CHANNELS 3 Zrotation Xrotation Yrotation
                JOINT rThumb2
                {
                  OFFSET -3.37035 -0.52449 3.41376
                  CHANNELS 3 Zrotation Xrotation Yrotation
                  End Site
                  {
                    OFFSET -1.78271 -1.18214 1.43049
                  }
                }
              }
              JOINT rIndex1
              {
                OFFSET -7.75947 0.938293 5.60832
                CHANNELS 3 Zrotation Xrotation Yrotation
                JOINT rIndex2
                {
                  OFFSET -2.54057 -0.884171 1.56538
                  CHANNELS 3 Zrotation Xrotation Yrotation
                  End Site
                  {
                    OFFSET -1.62519 -0.234802 1.16502
                  }
                }
              }
              JOINT rMid1
              {
                OFFSET -8.24714 1.18213 3.41376
                CHANNELS 3 Zrotation Xrotation Yrotation
                JOINT rMid2
                {
                  OFFSET -3.10165 -0.590103 1.0647
                  CHANNELS 3 Zrotation Xrotation Yrotation
                  End Site
                  {
                    OFFSET -2.48547 -0.328903 0.83742
                  }
                }
              }
              JOINT rRing1
              {
                OFFSET -8.82822 0.546677 1.51678
                CHANNELS 3 Zrotation Xrotation Yrotation
                JOINT rRing2
                {
                  OFFSET -2.60934 -0.819778 -0.0198488
                  CHANNELS 3 Zrotation Xrotation Yrotation
                  End Site
                  {
                    OFFSET -2.33842 -0.294052 0.168128
                  }
                }
              }
              JOINT rPinky1
              {
                OFFSET -8.27202 -0.0477905 -0.4584
                CHANNELS 3 Zrotation Xrotation Yrotation
                JOINT rPinky2
                {
                  OFFSET -1.82734 -0.647385 -0.700984
                  CHANNELS 3 Zrotation Xrotation Yrotation
                  End Site
                  {
                    OFFSET -1.69225 -0.51767 -0.607171
                  }
                }
              }
            }
          }
        }
      }
      JOINT lCollar
      {
        OFFSET 2.68224 19.2634 -4.8768
        CHANNELS 3 Zrotation Xrotation Yrotation
        JOINT lShldr
        {
          OFFSET 8.77824 -1.95073 1.46304
          CHANNELS 3 Zrotation Xrotation Yrotation
          JOINT lForeArm
          {
            OFFSET 28.1742 -1.7115 0.48768
            CHANNELS 3 Zrotation Xrotation Yrotation
            JOINT lHand
            {
              OFFSET 22.5879 0.773209 7.07136
              CHANNELS 3 Zrotation Xrotation Yrotation
              JOINT lThumb1
              {
                OFFSET 1.2192 -0.487915 3.41376
                CHANNELS 3 Zrotation Xrotation Yrotation
                JOINT lThumb2
                {
                  OFFSET 3.37035 -0.52449 3.41376
                  CHANNELS 3 Zrotation Xrotation Yrotation
                  End Site
                  {
                    OFFSET 1.78271 -1.18214 1.43049
                  }
                }
              }
              JOINT lIndex1
              {
                OFFSET 7.75947 0.938293 5.60832
                CHANNELS 3 Zrotation Xrotation Yrotation
                JOINT lIndex2
                {
                  OFFSET 2.54057 -0.884171 1.56538
                  CHANNELS 3 Zrotation Xrotation Yrotation
                  End Site
                  {
                    OFFSET 1.62519 -0.234802 1.16502
                  }
                }
              }
              JOINT lMid1
              {
                OFFSET 8.24714 1.18213 3.41376
                CHANNELS 3 Zrotation Xrotation Yrotation
                JOINT lMid2
                {
                  OFFSET 3.10165 -0.590103 1.0647
                  CHANNELS 3 Zrotation Xrotation Yrotation
                  End Site
                  {
                    OFFSET 2.48547 -0.328903 0.83742
                  }
                }
              }
              JOINT lRing1
              {
                OFFSET 8.82822 0.546677 1.51678
                CHANNELS 3 Zrotation Xrotation Yrotation
                JOINT lRing2
                {
                  OFFSET 2.60934 -0.819778 -0.0198488
                  CHANNELS 3 Zrotation Xrotation Yrotation
                  End Site
                  {
                    OFFSET 2.33842 -0.294052 0.168128
                  }
                }
              }
              JOINT lPinky1
              {
                OFFSET 8.27202 -0.0477905 -0.4584
                CHANNELS 3 Zrotation Xrotation Yrotation
                JOINT lPinky2
                {
                  OFFSET 1.82734 -0.647385 -0.700984
                  CHANNELS 3 Zrotation Xrotation Yrotation
                  End Site
                  {
                    OFFSET 1.69225 -0.51767 -0.607171
                  }
                }
              }
            }
          }
        }
      }
    }
  }
  JOINT rButtock
  {
    OFFSET -8.77824 4.35084 1.2192
    CHANNELS 3 Zrotation Xrotation Yrotation
    JOINT rThigh
    {
      OFFSET 0 -1.70687 -2.19456
      CHANNELS 3 Zrotation Xrotation Yrotation
      JOINT rShin
      {
        OFFSET 0 -36.8199 0.73152
        CHANNELS 3 Zrotation Xrotation Yrotation
        JOINT rFoot
        {
          OFFSET 0.73152 -45.1104 -5.12064
          CHANNELS 3 Zrotation Xrotation Yrotation
          End Site
          {
            OFFSET -1.1221 -3.69964 12.103
          }
        }
      }
    }
  }
  JOINT lButtock
  {
    OFFSET 8.77824 4.35084 1.2192
    CHANNELS 3 Zrotation Xrotation Yrotation
    JOINT lThigh
    {
      OFFSET 0 -1.70687 -2.19456
      CHANNELS 3 Zrotation Xrotation Yrotation
      JOINT lShin
      {
        OFFSET 0 -36.8199 0.73152
        CHANNELS 3 Zrotation Xrotation Yrotation
        JOINT lFoot
        {
          OFFSET -0.73152 -45.1104 -5.12064
          CHANNELS 3 Zrotation Xrotation Yrotation
          End Site
          {
            OFFSET 1.1221 -3.69964 12.103
          }
        }
      }
    }
  }
}
MOTION
Frames:	9
Frame Time:	0.00833333
39.8154 80.7587 9.47888 -180.743 -16.8482 -171.258 -7.52791 -0.280548 4.3016 -0.0116502 5.16919 1.10381 -16.4099 4.54689 -10.9472 12.6304 -1.04465 -19.1775 -0.0 0.0 0.0 -0.0 0.0 0.0 7.0042e-14 2.0659e-14 -5.59678e-13 46.9551 -15.3094 59.965 -22.6687 -16.7953 45.6372 -0.0294021 4.88874 0.688756 2.45743e-09 9.18032e-09 1.55434e-09 4.25082e-09 1.58497e-08 2.67426e-09 2.45743e-09 9.18033e-09 1.55433e-09 7.73091 5.47488 0.417314 2.45743e-09 9.18033e-09 1.55434e-09 2.90554 0.965183 0.102902 2.45743e-09 9.18033e-09 1.55433e-09 10.2786 0.731801 0.0259123 2.45743e-09 9.18033e-09 1.55434e-09 2.22167 -0.733487 -0.20892 6.98572e-14 2.06864e-14 -5.59927e-13 -76.586 13.7623 1.22882 11.7021 -5.24183 -21.0346 0.0710352 7.58234 -1.07196 2.10053e-09 3.77984e-09 -2.25254e-09 3.61503e-09 6.54536e-09 -3.91207e-09 2.10053e-09 3.77983e-09 -2.25252e-09 -7.73091 5.47488 -0.417314 2.10053e-09 3.77983e-09 -2.25254e-09 -2.90554 0.965183 -0.102902 2.10053e-09 3.77983e-09 -2.25253e-09 -10.2786 0.731801 -0.0259123 2.10053e-09 3.77984e-09 -2.25253e-09 -2.22167 -0.733487 0.20892 -2.03217e-16 0.0 -3.88251e-19 -10.4292 -17.8732 -10.4262 -0.174586 30.4156 0.691455 -6.4209 -14.1719 -18.5916 2.03217e-16 0.0 3.88251e-19 -1.22672 -16.2907 6.85433 0.00844621 20.4615 -0.259443 -0.86948 -10.4816 -5.34028
39.8377 80.7568 9.46334 -180.538 -16.7803 -171.296 -7.28818 -0.303069 4.30668 -0.0919013 5.215 1.11123 -16.5088 4.44401 -10.9582 12.9295 -0.959801 -19.158 -0.0 0.0 0.0 -0.0 0.0 0.0 5.80577e-14 9.69329e-14 -6.06404e-13 47.0314 -15.3256 60.1246 -22.6376 -16.7455 45.5502 -0.0296803 4.90989 0.691754 2.65224e-09 9.32244e-09 1.43145e-09 4.58705e-09 1.60932e-08 2.46144e-09 2.65224e-09 9.32244e-09 1.43144e-09 7.73091 5.47488 0.417314 2.65224e-09 9.32244e-09 1.43145e-09 2.90554 0.965183 0.102902 2.65224e-09 9.32244e-09 1.43145e-09 10.2786 0.731801 0.0259123 2.65224e-09 9.32244e-09 1.43145e-09 2.22167 -0.733487 -0.20892 5.79039e-14 9.69552e-14 -6.06619e-13 -76.6818 13.5106 1.12876 11.6101 -5.17913 -20.8574 0.0766236 7.856 -1.11117 2.34514e-09 4.43931e-09 -1.78579e-09 4.04163e-09 7.68656e-09 -3.10769e-09 2.34514e-09 4.43931e-09 -1.78578e-09 -7.73091 5.47488 -0.417314 2.34514e-09 4.43931e-09 -1.7858e-09 -2.90554 0.965183 -0.102902 2.34514e-09 4.43931e-09 -1.78579e-09 -10.2786 0.731801 -0.0259123 2.34514e-09 4.43931e-09 -1.78579e-09 -2.22167 -0.733487 0.20892 -2.03217e-16 0.0 -3.88251e-19 -10.2554 -17.7785 -10.3822 -0.172905 30.2362 0.686168 -6.38342 -14.1259 -18.5276 2.03217e-16 0.0 3.88251e-19 -1.08025 -16.3042 6.80874 0.00861094 20.5247 -0.261114 -0.84385 -10.4868 -5.21911
39.8656 80.7605 9.42327 -180.277 -16.7198 -171.471 -6.98014 -0.283454 4.38482 -0.245701 5.28475 1.14136 -16.5879 4.25214 -11.01 13.3324 -0.791488 -19.2046 -0.0 0.0 0.0 -0.0 0.0 0.0 2.48573e-14 2.10207e-13 -5.6567e-13 47.2252 -15.4634 60.2725 -22.6152 -16.7095 45.4869 -0.0310963 5.02777 0.708443 2.42047e-09 7.53355e-09 8.81971e-10 4.18496e-09 1.30024e-08 1.51401e-09 2.42047e-09 7.53355e-09 8.81965e-10 7.73091 5.47488 0.417314 2.42047e-09 7.53355e-09 8.81979e-10 2.90554 0.965183 0.102902 2.42047e-09 7.53355e-09 8.8197e-10 10.2786 0.731801 0.0259123 2.42047e-09 7.53355e-09 8.81972e-10 2.22167 -0.733487 -0.20892 2.47814e-14 2.10222e-13 -5.65834e-13 -76.6645 13.3095 0.887223 11.5049 -5.10773 -20.6551 0.0803415 8.04403 -1.13812 2.32207e-09 4.52899e-09 -5.18653e-10 4.01071e-09 7.84067e-09 -9.17488e-10 2.32207e-09 4.52899e-09 -5.18638e-10 -7.73091 5.47488 -0.417314 2.32207e-09 4.52899e-09 -5.18656e-10 -2.90554 0.965183 -0.102902 2.32206e-09 4.52899e-09 -5.18651e-10 -10.2786 0.731801 -0.0259123 2.32207e-09 4.52899e-09 -5.18658e-10 -2.22167 -0.733487 0.20892 -2.03217e-16 0.0 -3.88251e-19 -10.033 -17.6956 -10.3992 -0.171513 30.0689 0.68046 -6.33454 -14.0527 -18.4543 2.03217e-16 0.0 3.88251e-19 -0.854839 -16.3558 6.82195 0.00889692 20.6392 -0.263324 -0.836287 -10.5191 -5.17244
39.9049 80.7591 9.40364 -180.036 -16.7147 -171.552 -6.67317 -0.252859 4.49127 -0.413858 5.3538 1.17971 -16.6496 4.04787 -11.0676 13.7457 -0.600289 -19.2671 -0.0 0.0 0.0 -0.0 0.0 0.0 -1.20209e-14 3.05839e-13 -4.7981e-13 47.4309 -15.6316 60.3906 -22.5945 -16.6766 45.4285 -0.0330034 5.17987 0.729991 2.02166e-09 5.19373e-09 2.53393e-10 3.49409e-09 8.96058e-09 4.30537e-10 2.02166e-09 5.19373e-09 2.53388e-10 7.73091 5.47488 0.417314 2.02167e-09 5.19373e-09 2.53406e-10 2.90554 0.965183 0.102902 2.02167e-09 5.19373e-09 2.53394e-10 10.2786 0.731801 0.0259123 2.02166e-09 5.19373e-09 2.53397e-10 2.22167 -0.733487 -0.20892 -1.20138e-14 3.05846e-13 -4.79929e-13 -76.6139 13.1721 0.613654 11.4162 -5.04776 -20.4853 0.0822723 8.14862 -1.15309 2.16611e-09 4.26261e-09 8.03026e-10 3.75033e-09 7.37847e-09 1.36825e-09 2.16611e-09 4.26261e-09 8.03039e-10 -7.73091 5.47488 -0.417314 2.16611e-09 4.26261e-09 8.0302e-10 -2.90554 0.965183 -0.102902 2.1661e-09 4.26261e-09 8.03023e-10 -10.2786 0.731801 -0.0259123 2.16611e-09 4.26261e-09 8.03013e-10 -2.22167 -0.733487 0.20892 -2.03217e-16 0.0 -3.88251e-19 -9.81407 -17.6223 -10.4431 -0.170345 29.9179 0.67494 -6.28216 -13.9728 -18.3764 2.03217e-16 0.0 3.88251e-19 -0.621949 -16.4155 6.84745 0.00905785 20.7653 -0.265649 -0.833281 -10.5597 -5.14412
39.9179 80.7548 9.4151 -179.961 -16.7118 -171.497 -6.43641 -0.242426 4.5813 -0.537065 5.39751 1.21175 -16.6954 3.90769 -11.0963 14.0754 -0.446533 -19.2948 -0.0 0.0 0.0 -0.0 0.0 0.0 -3.50388e-14 3.29188e-13 -3.91159e-13 47.5417 -15.7403 60.4587 -22.5689 -16.636 45.3561 -0.0346245 5.30373 0.747548 1.71537e-09 3.68305e-09 -1.06797e-10 2.96401e-09 6.35116e-09 -1.90416e-10 1.71537e-09 3.68305e-09 -1.068e-10 7.73091 5.47488 0.417314 1.71537e-09 3.68305e-09 -1.06781e-10 2.90554 0.965183 0.102902 1.71537e-09 3.68305e-09 -1.06793e-10 10.2786 0.731801 0.0259123 1.71536e-09 3.68305e-09 -1.0679e-10 2.22167 -0.733487 -0.20892 -3.49854e-14 3.29188e-13 -3.91258e-13 -76.6081 13.1115 0.417105 11.3744 -5.01956 -20.4057 0.0826114 8.17193 -1.15642 2.01206e-09 3.85392e-09 1.43338e-09 3.48856e-09 6.67076e-09 2.45921e-09 2.01205e-09 3.85392e-09 1.43339e-09 -7.73091 5.47488 -0.417314 2.01206e-09 3.85392e-09 1.43337e-09 -2.90554 0.965183 -0.102902 2.01204e-09 3.85392e-09 1.43338e-09 -10.2786 0.731801 -0.0259123 2.01206e-09 3.85392e-09 1.43336e-09 -2.22167 -0.733487 0.20892 -2.03217e-16 0.0 -3.88251e-19 -9.65098 -17.5559 -10.4799 -0.169327 29.787 0.670215 -6.23406 -13.9067 -18.2982 2.03217e-16 0.0 3.88251e-19 -0.453212 -16.4536 6.83868 0.00883771 20.8636 -0.267659 -0.821281 -10.5896 -5.078
39.9064 80.7542 9.43081 -180.011 -16.671 -171.431 -6.29055 -0.256084 4.69713 -0.627071 5.41412 1.2499 -16.6854 3.82841 -11.1049 14.2987 -0.329598 -19.3117 -0.0 0.0 0.0 -0.0 0.0 0.0 -3.68851e-14 2.36296e-13 -2.88729e-13 47.5639 -15.8193 60.436 -22.5341 -16.5809 45.2583 -0.0362985 5.42652 0.764964 1.56697e-09 3.4625e-09 -6.46005e-11 2.70831e-09 5.97046e-09 -1.18135e-10 1.56697e-09 3.46249e-09 -6.46048e-11 7.73091 5.47488 0.417314 1.56697e-09 3.46249e-09 -6.4588e-11 2.90554 0.965183 0.102902 1.56697e-09 3.46249e-09 -6.45982e-11 10.2786 0.731801 0.0259123 1.56696e-09 3.46249e-09 -6.45937e-11 2.22167 -0.733487 -0.20892 -3.68439e-14 2.36291e-13 -2.88847e-13 -76.6204 13.1933 0.294008 11.3895 -5.02947 -20.435 0.0811302 8.09823 -1.14585 1.855e-09 3.26395e-09 1.00093e-09 3.21445e-09 5.65071e-09 1.71342e-09 1.85499e-09 3.26395e-09 1.00094e-09 -7.73091 5.47488 -0.417314 1.855e-09 3.26395e-09 1.00093e-09 -2.90554 0.965183 -0.102902 1.85498e-09 3.26395e-09 1.00093e-09 -10.2786 0.731801 -0.0259123 1.855e-09 3.26395e-09 1.00092e-09 -2.22167 -0.733487 0.20892 -2.03217e-16 0.0 -3.88251e-19 -9.55294 -17.5008 -10.5007 -0.16848 29.678 0.666421 -6.1928 -13.8529 -18.2285 2.03217e-16 0.0 3.88251e-19 -0.364104 -16.4665 6.77853 0.00767462 20.9283 -0.26938 -0.7947 -10.6065 -4.94915
39.8978 80.7558 9.43238 -180.043 -16.6148 -171.425 -6.19786 -0.278672 4.84456 -0.70628 5.41516 1.29647 -16.6321 3.77708 -11.1058 14.4648 -0.222861 -19.3322 -0.0 0.0 0.0 -0.0 0.0 0.0 -2.77916e-14 6.6101e-14 -1.57369e-13 47.5424 -15.8994 60.3445 -22.4945 -16.5184 45.1472 -0.0382973 5.56697 0.784895 1.43931e-09 3.76503e-09 1.80876e-10 2.48934e-09 6.49376e-09 3.04447e-10 1.43931e-09 3.76503e-09 1.8087e-10 7.73091 5.47488 0.417314 1.43931e-09 3.76503e-09 1.80882e-10 2.90554 0.965183 0.102902 1.43931e-09 3.76503e-09 1.80876e-10 10.2786 0.731801 0.0259123 1.43931e-09 3.76503e-09 1.80883e-10 2.22167 -0.733487 -0.20892 -2.77954e-14 6.60912e-14 -1.57531e-13 -76.6237 13.39 0.196741 11.4448 -5.06638 -20.5414 0.0778547 7.93179 -1.122 1.63666e-09 2.41069e-09 -3.90001e-11 2.83027e-09 4.1758e-09 -8.16658e-11 1.63666e-09 2.4107e-09 -3.89873e-11 -7.73091 5.47488 -0.417314 1.63666e-09 2.41069e-09 -3.90052e-11 -2.90554 0.965183 -0.102902 1.63665e-09 2.41069e-09 -3.90015e-11 -10.2786 0.731801 -0.0259123 1.63667e-09 2.41069e-09 -3.90072e-11 -2.22167 -0.733487 0.20892 -2.03217e-16 0.0 -3.88251e-19 -9.49363 -17.4568 -10.5235 -0.167813 29.5886 0.663233 -6.15404 -13.8027 -18.1624 2.03217e-16 0.0 3.88251e-19 -0.317626 -16.4685 6.69339 0.00586619 20.9792 -0.270992 -0.76142 -10.6197 -4.79084
39.9259 80.7565 9.4144 -179.897 -16.545 -171.521 -6.13975 -0.312694 4.92426 -0.731256 5.39597 1.32178 -16.6151 3.78541 -11.0698 14.5872 -0.147334 -19.2914 -0.0 0.0 0.0 -0.0 0.0 0.0 -1.65347e-14 -1.11697e-13 -3.31621e-14 47.428 -15.8914 60.2579 -22.4559 -16.4576 45.0397 -0.0394802 5.64986 0.796661 1.28815e-09 4.12874e-09 4.7747e-10 2.22971e-09 7.12285e-09 8.15423e-10 1.28815e-09 4.12874e-09 4.77461e-10 7.73091 5.47488 0.417314 1.28815e-09 4.12874e-09 4.77468e-10 2.90554 0.965183 0.102902 1.28815e-09 4.12874e-09 4.77468e-10 10.2786 0.731801 0.0259123 1.28815e-09 4.12874e-09 4.77476e-10 2.22167 -0.733487 -0.20892 -1.65864e-14 -1.11712e-13 -3.33733e-14 -76.6952 13.5751 0.168444 11.5309 -5.12458 -20.7066 0.0734595 7.70483 -1.08949 1.4118e-09 1.44333e-09 -1.19208e-09 2.43396e-09 2.50329e-09 -2.07216e-09 1.41179e-09 1.44333e-09 -1.19206e-09 -7.73091 5.47488 -0.417314 1.4118e-09 1.44333e-09 -1.19208e-09 -2.90554 0.965183 -0.102902 1.41179e-09 1.44333e-09 -1.19207e-09 -10.2786 0.731801 -0.0259123 1.4118e-09 1.44333e-09 -1.19208e-09 -2.22167 -0.733487 0.20892 -2.03217e-16 0.0 -3.88251e-19 -9.4721 -17.4142 -10.555 -0.167228 29.5166 0.66056 -6.11507 -13.7663 -18.0837 2.03217e-16 0.0 3.88251e-19 -0.306776 -16.4569 6.60194 0.00443769 21.0136 -0.272298 -0.728098 -10.6272 -4.63418
39.9577 80.7579 9.40502 -179.743 -16.4864 -171.627 -6.09792 -0.360678 4.83687 -0.658622 5.35188 1.29619 -16.7145 3.88514 -10.9677 14.6794 -0.123971 -19.1245 -0.0 0.0 0.0 -0.0 0.0 0.0 -1.18911e-14 -2.274e-13 4.78077e-14 47.1716 -15.7061 60.2503 -22.4244 -16.4081 44.9524 -0.0386168 5.59999 0.789568 1.06923e-09 4.09173e-09 6.73018e-10 1.85205e-09 7.05952e-09 1.15289e-09 1.06923e-09 4.09173e-09 6.73009e-10 7.73091 5.47488 0.417314 1.06923e-09 4.09173e-09 6.73012e-10 2.90554 0.965183 0.102902 1.06923e-09 4.09173e-09 6.73015e-10 10.2786 0.731801 0.0259123 1.06923e-09 4.09174e-09 6.73024e-10 2.22167 -0.733487 -0.20892 -1.19637e-14 -2.27419e-13 4.75592e-14 -76.9132 13.6223 0.252459 11.6384 -5.19831 -20.9123 0.0685516 7.44957 -1.05297 1.23516e-09 5.11017e-10 -1.96395e-09 2.12343e-09 8.90409e-10 -3.40419e-09 1.23515e-09 5.1102e-10 -1.96394e-09 -7.73091 5.47488 -0.417314 1.23516e-09 5.11018e-10 -1.96396e-09 -2.90554 0.965183 -0.102902 1.23515e-09 5.11017e-10 -1.96395e-09 -10.2786 0.731801 -0.0259123 1.23516e-09 5.11018e-10 -1.96395e-09 -2.22167 -0.733487 0.20892 -2.03217e-16 0.0 -3.88251e-19 -9.48734 -17.3634 -10.6014 -0.16663 29.4602 0.658314 -6.07317 -13.7534 -17.9765 2.03217e-16 0.0 3.88251e-19 -0.324533 -16.4284 6.52284 0.00441416 21.0295 -0.273102 -0.70143 -10.6271 -4.51029
